<?xml version="1.0" encoding="utf-8"?>
<?xml-stylesheet type="text/xsl" href="rss1.xsl"?>
<rss version="2.0" xmlns:atom="http://www.w3.org/2005/Atom" xmlns:content="http://purl.org/rss/1.0/modules/content/" xmlns:dc="http://purl.org/dc/elements/1.1/" xmlns:media="http://search.yahoo.com/mrss/">
<channel>
 <title>Getty</title>
 <link>http://www.gettyimg.com/</link>
 <atom:link href="http://www.gettyimg.com/" rel="self" type="application/rss+xml" />

 
                <item>
                <title><![CDATA[【Cinema Center】MOVIE - Miraculous World: New York - United Heroez (2020) REPACK 1080p Disney+ WEB-DL DDP5.1 H.264-LADYBUG]]></title>
                <link><![CDATA[https://sharemania.us/threads/miraculous-world-new-york-united-heroez-2020-repack-1080p-disney-web-dl-ddp5-1-h-264-ladybug.236256/]]></link>
                <description><![CDATA[<article>
<blockquote class="messageText SelectQuoteContainer ugc baseHtml">
<span style="font-size: 22px">Miraculous World: New York - United HeroeZ</span><br>
<br>
<div class="bbCodeBlock bbCodeQuote">
<aside>
<blockquote class="quoteContainer"><div class="quote">Synopsis:<br>
<span style="font-size: 15px">Marinette's class goes on a trip to New York, the city of superheroes, for French American Friendship Week, but the super heroes living there find themselves in need of help while there.</span></div><div class="quoteExpand">Click to expand...</div></blockquote>
</aside>
</div>
<div class="ToggleTriggerAnchor bbCodeSpoilerContainer">
<button type="button" class="button bbCodeSpoilerButton ToggleTrigger Tooltip JsOnly" data-target="> .SpoilerTarget"><span>Spoiler: <span class="SpoilerTitle">Mediainfo</span></span></button>
<div class="SpoilerTarget bbCodeSpoilerText">
<div class="bbCodeBlock bbCodeCode">
<div class="type">Code:</div>
<pre>General
Unique ID                                : 12585376906575442716904174515999858688 (0x977DAFD1AE7CDA25DC75BFAC411E000)
Complete name                            : Miraculous.World.New.York.United.Heroez.2020.REPACK.1080p.DSNP.WEB-DL.DDP5.1.H.264-LADYBUG.mkv
Format                                   : Matroska
Format version                           : Version 4
File size                                : 3.10 GiB
Duration                                 : 1 h 0 min
Overall bit rate mode                    : Variable
Overall bit rate                         : 7 350 kb/s
Writing application                      : mkvmerge v69.0.0 ('Day And Age') 64-bit
Writing library                          : libebml v1.4.2 + libmatroska v1.6.4

Video
ID                                       : 1
Format                                   : AVC
Format/Info                              : Advanced Video Codec
Format profile                           : High@L4
Format settings                          : CABAC / 4 Ref Frames
Format settings, CABAC                   : Yes
Format settings, Reference frames        : 4 frames
Codec ID                                 : V_MPEG4/ISO/AVC
Duration                                 : 1 h 0 min
Bit rate mode                            : Variable
Bit rate                                 : 6 834 kb/s
Maximum bit rate                         : 12.7 Mb/s
Width                                    : 1 920 pixels
Height                                   : 1 080 pixels
Display aspect ratio                     : 16:9
Frame rate mode                          : Constant
Frame rate                               : 25.000 FPS
Color space                              : YUV
Chroma subsampling                       : 4:2:0
Bit depth                                : 8 bits
Scan type                                : Progressive
Bits/(Pixel*Frame)                       : 0.132
Stream size                              : 2.88 GiB (93%)
Default                                  : Yes
Forced                                   : No
Color range                              : Limited
Color primaries                          : BT.709
Transfer characteristics                 : BT.709
Matrix coefficients                      : BT.709

Audio #1
ID                                       : 2
Format                                   : E-AC-3
Format/Info                              : Enhanced AC-3
Commercial name                          : Dolby Digital Plus
Codec ID                                 : A_EAC3
Duration                                 : 1 h 0 min
Bit rate mode                            : Constant
Bit rate                                 : 256 kb/s
Channel(s)                               : 6 channels
Channel layout                           : L R C LFE Ls Rs
Sampling rate                            : 48.0 kHz
Frame rate                               : 31.250 FPS (1536 SPF)
Compression mode                         : Lossy
Stream size                              : 111 MiB (3%)
Language                                 : French
Service kind                             : Complete Main
Default                                  : Yes
Forced                                   : No

Audio #2
ID                                       : 3
Format                                   : E-AC-3
Format/Info                              : Enhanced AC-3
Commercial name                          : Dolby Digital Plus
Codec ID                                 : A_EAC3
Duration                                 : 1 h 0 min
Bit rate mode                            : Constant
Bit rate                                 : 256 kb/s
Channel(s)                               : 6 channels
Channel layout                           : L R C LFE Ls Rs
Sampling rate                            : 48.0 kHz
Frame rate                               : 31.250 FPS (1536 SPF)
Compression mode                         : Lossy
Stream size                              : 111 MiB (3%)
Language                                 : English
Service kind                             : Complete Main
Default                                  : No
Forced                                   : No

Text #1
ID                                       : 4
Format                                   : UTF-8
Codec ID                                 : S_TEXT/UTF8
Codec ID/Info                            : UTF-8 Plain Text
Duration                                 : 58 min 59 s
Bit rate                                 : 78 b/s
Count of elements                        : 868
Stream size                              : 34.0 KiB (0%)
Language                                 : English
Default                                  : No
Forced                                   : No

Text #2
ID                                       : 5
Format                                   : UTF-8
Codec ID                                 : S_TEXT/UTF8
Codec ID/Info                            : UTF-8 Plain Text
Duration                                 : 58 min 59 s
Bit rate                                 : 81 b/s
Count of elements                        : 925
Stream size                              : 35.1 KiB (0%)
Title                                    : SDH
Language                                 : English
Default                                  : No
Forced                                   : No

Text #3
ID                                       : 6
Format                                   : UTF-8
Codec ID                                 : S_TEXT/UTF8
Codec ID/Info                            : UTF-8 Plain Text
Duration                                 : 58 min 58 s
Bit rate                                 : 69 b/s
Count of elements                        : 767
Stream size                              : 29.8 KiB (0%)
Language                                 : Czech
Default                                  : No
Forced                                   : No

Text #4
ID                                       : 7
Format                                   : UTF-8
Codec ID                                 : S_TEXT/UTF8
Codec ID/Info                            : UTF-8 Plain Text
Duration                                 : 58 min 58 s
Bit rate                                 : 117 b/s
Count of elements                        : 772
Stream size                              : 50.5 KiB (0%)
Language                                 : Greek
Default                                  : No
Forced                                   : No

Text #5
ID                                       : 8
Format                                   : UTF-8
Codec ID                                 : S_TEXT/UTF8
Codec ID/Info                            : UTF-8 Plain Text
Duration                                 : 59 min 10 s
Bit rate                                 : 71 b/s
Count of elements                        : 760
Stream size                              : 30.8 KiB (0%)
Language                                 : Finnish
Default                                  : No
Forced                                   : No

Text #6
ID                                       : 9
Format                                   : UTF-8
Codec ID                                 : S_TEXT/UTF8
Codec ID/Info                            : UTF-8 Plain Text
Duration                                 : 59 min 10 s
Bit rate                                 : 69 b/s
Count of elements                        : 825
Stream size                              : 30.1 KiB (0%)
Language                                 : Hungarian
Default                                  : No
Forced                                   : No

Text #7
ID                                       : 10
Format                                   : UTF-8
Codec ID                                 : S_TEXT/UTF8
Codec ID/Info                            : UTF-8 Plain Text
Duration                                 : 59 min 34 s
Bit rate                                 : 70 b/s
Count of elements                        : 877
Stream size                              : 30.6 KiB (0%)
Language                                 : Polish
Default                                  : No
Forced                                   : No

Text #8
ID                                       : 11
Format                                   : UTF-8
Codec ID                                 : S_TEXT/UTF8
Codec ID/Info                            : UTF-8 Plain Text
Duration                                 : 58 min 58 s
Bit rate                                 : 85 b/s
Count of elements                        : 920
Stream size                              : 36.8 KiB (0%)
Language                                 : Romanian
Default                                  : No
Forced                                   : No

Text #9
ID                                       : 12
Format                                   : UTF-8
Codec ID                                 : S_TEXT/UTF8
Codec ID/Info                            : UTF-8 Plain Text
Duration                                 : 58 min 58 s
Bit rate                                 : 73 b/s
Count of elements                        : 791
Stream size                              : 31.9 KiB (0%)
Language                                 : Turkish
Default                                  : No
Forced                                   : No

Text #10
ID                                       : 13
Format                                   : UTF-8
Codec ID                                 : S_TEXT/UTF8
Codec ID/Info                            : UTF-8 Plain Text
Duration                                 : 59 min 35 s
Bit rate                                 : 66 b/s
Count of elements                        : 814
Stream size                              : 29.1 KiB (0%)
Title                                    : Chinese (Hong Kong SAR China)
Language                                 : Chinese
Default                                  : No
Forced                                   : No

Text #11
ID                                       : 14
Format                                   : UTF-8
Codec ID                                 : S_TEXT/UTF8
Codec ID/Info                            : UTF-8 Plain Text
Duration                                 : 59 min 35 s
Bit rate                                 : 67 b/s
Count of elements                        : 814
Stream size                              : 29.2 KiB (0%)
Title                                    : Chinese (Traditional)
Language                                 : Chinese
Default                                  : No
Forced                                   : No

</pre>
</div></div>
</div><br>
<span style="font-size: 18px">Download Link:</span><br>
<div class="bbCodeBlock bbCodeVfcHH HiddenContent">
<div class="attribution type">Hidden Content:</div>
<blockquote>You must either reply or click 'Like' to see the hidden information contained here.</blockquote>
</div>
<div class="messageTextEndMarker">&nbsp;</div>
</blockquote>
</article>]]></description>
                <author><![CDATA[fr3akyphantom]]></author>
                </item>

                </channel></rss>